<svg width="115" height="125" xmlns="http://www.w3.org/2000/svg" xmlns:xlink="http://www.w3.org/1999/xlink">
 <defs>
  <filter id="B" color-interpolation-filters="sRGB" height="2.145" width="1.07" y="-0.573" x="-0.035">
   <feGaussianBlur id="L" stdDeviation="1.16249"/>
  </filter>
  <linearGradient id="7">
   <stop stop-color="#a4c0e4" id="F"/>
   <stop stop-color="#6193cf" offset="1" id="G"/>
  </linearGradient>
  <linearGradient id="8">
   <stop stop-color="#fff" id="H"/>
   <stop stop-opacity="0" stop-color="#fff" offset="1" id="I"/>
  </linearGradient>
  <linearGradient id="9">
   <stop id="J"/>
   <stop stop-opacity="0" offset="1" id="K"/>
  </linearGradient>
  <radialGradient gradientTransform="matrix(1,0,0,0.06153846,0,117.07494)" gradientUnits="userSpaceOnUse" xlink:href="#9" id="A" r="39.585" cy="124.75" cx="68.01"/>
  <linearGradient x1="-0.083808" xlink:href="#8" id="C" y2="0.051713" x2="-0.083808" y1="0.000664"/>
  <linearGradient x1="-0.980156" xlink:href="#8" id="D" y2="1.000201" x2="-0.980156" y1="-0.000004"/>
  <linearGradient x1="-0.064187" xlink:href="#7" id="E" y2="1.000021" x2="-0.064187" y1="0.000002"/>
 </defs>
 <g>
  <title>background</title>
  <rect fill="none" id="canvas_background" height="127" width="117" y="-1" x="-1"/>
 </g>
 <g>
  <title>Layer 1</title>
  <path filter="url(#B)" fill="url(#A)" opacity="0.43" id="1" d="m104.702535,121.343658a49.014234,2.528751 0 1 1 -98.028456,0a49.014234,2.528751 0 1 1 98.028456,0z"/>
  <path transform="rotate(-35 55.688312530517614,65.2944564819336) " fill="#0057ae" id="2" d="m39.063312,7.284903c-0.34492,0.00573 -0.69906,0.02819 -1.125,0.0625c-0.1639,0.0132 -0.25525,0.04465 -0.375,0.0625c-0.04301,0.00272 -0.1497,0.01586 -0.28125,0.03125c-0.03637,0.00426 -0.11539,0.02561 -0.15625,0.03125c-0.25473,0.03514 -0.56,0.06485 -0.96875,0.21875c-0.0045,0.0017 -0.60614,0.24699 -1.125,0.59375c-0.78231,0.52283 -1.25591,1.14997 -1.59375,1.6875c-0.38822,0.61769 -0.74308,1.37479 -0.84375,2.34375c-0.03574,0.34398 -0.04146,0.62737 -0.03125,0.84375c0.0045,0.09631 0.02257,0.16403 0.03125,0.25c0.0011,0.0106 -0.0012,0.0205 0,0.03125c0.0052,0.04895 0.008,0.07414 0.03125,0.21875c0.0058,0.03615 0.03118,0.21843 0.03125,0.21875c0.00003,0.00016 0.09373,0.34367 0.09375,0.34375c0,0 0.03032,0.02993 0.03125,0.03125c0.01051,0.03576 0.02053,0.09129 0.03125,0.125l-0.03125,0c-0.01762,-0.06689 0.06602,0.18367 0.0625,0.1875c-0.01108,0.01207 -0.01255,0.07611 0.1875,0.59375c0.21851,0.5654 0.37758,0.83376 0.46875,1.03125c0.31647,0.6855 0.71034,1.55293 1.21875,2.5625c1.00994,2.00547 2.33148,4.54574 3.6875,7.125c1.35415,2.57571 2.7627,5.17953 3.8125,7.15625c0.52488,0.98832 0.96662,1.8164 1.28125,2.40625c0.15731,0.29493 0.25797,0.52694 0.34375,0.6875c0.08578,0.16056 0.33018,0.63834 0.125,0.25c-0.12368,-0.23408 2.84464,5.34087 5.5625,10.46875c1.34887,2.54495 2.70822,5.15825 3.8125,7.15625c0.56937,1.03017 1.06143,1.82966 1.40625,2.40625c0.19222,0.32142 0.36074,0.63021 0.59375,0.96875c-0.45009,-0.65391 0.06892,0.19505 0.46875,0.65625c-0.01695,-0.01955 0.19806,0.19026 0.28125,0.28125c0.01169,0.01237 0.05035,0.04928 0.0625,0.0625c0.11068,0.12046 0.19729,0.20941 0.3125,0.3125c0.02775,0.02387 0.03372,0.0076 0.0625,0.03125a3.80132,3.80132 0 0 0 0.3125,0.21875c0.17963,0.13744 0.323,0.26235 0.59375,0.40625c0.68559,0.36437 1.51443,0.62395 2.375,0.65625c0.83661,0.03141 1.81553,-0.09261 2.8125,-0.625c0.43561,-0.23262 0.65132,-0.42729 0.875,-0.625c0.03782,-0.03343 0.12028,-0.06075 0.15625,-0.09375c0.0829,-0.07606 0.2077,-0.19773 0.3125,-0.3125c0.0524,-0.05738 0.0701,-0.04968 0.15625,-0.15625c0.02466,-0.02623 0.03439,-0.0008 0.0625,-0.03125c0.37651,-0.40777 0.53588,-0.67336 0.59375,-0.75c0.29459,-0.39015 0.5434,-0.74079 0.84375,-1.1875c0.66103,-0.98314 1.46627,-2.2704 2.34375,-3.65625c0.86037,-1.35883 1.80801,-2.92263 2.75,-4.4375c6.45291,4.65537 10.78125,11.93151 10.78125,20.5c0,14.34272 -11.50104,25.84375 -25.84375,25.84375c-14.34272,0 -25.84375,-11.50103 -25.84375,-25.84375c0,-5.89143 2.02255,-11.20979 5.40625,-15.625c0.77475,-1.01165 1.33847,-2.41196 1.09375,-4.125c-0.22355,-1.56495 -0.99133,-2.75682 -2.15625,-3.625l0,-0.03125c-0.01153,-0.0086 -0.01976,0.0086 -0.03125,0c-3.57767,-2.66368 -5.44772,-4.01957 -6.3125,-4.65625c-0.44943,-0.33088 -0.65115,-0.4993 -0.875,-0.65625c0.25917,0.18172 -0.15791,-0.07756 -0.21875,-0.125c-0.01334,-0.01127 -0.04845,-0.01951 -0.0625,-0.03125c-0.16397,-0.13709 -0.3659,-0.31025 -0.625,-0.5c-0.87047,-0.6375 -2.64497,-1.97084 -6.21875,-4.625a3.80132,3.80132 0 0 0 -0.03125,0c-1.98318,-1.45606 -4.59158,-1.22065 -6.4375,0.125a3.80132,3.80132 0 0 0 -1.1875,1.03125c-6.88209,9.11835 -11.1875,20.45281 -11.1875,32.84375c0,30.14081 24.54669,54.6875 54.6875,54.6875c30.1406,0 54.75,-24.53899 54.75,-54.6875c0,-18.84736 -9.82698,-35.20165 -24.375,-44.9375c0.57101,-0.89724 1.21529,-1.90347 1.6875,-2.65625c0.61229,-0.97609 1.17053,-1.82013 1.625,-2.59375c0.23995,-0.40846 0.38032,-0.76399 0.5,-1c0.00002,-0.00003 0.02678,-0.02421 0.03125,-0.03125c0.02195,-0.03455 0.07133,-0.14911 0.09375,-0.1875c0.05398,-0.09242 0.07222,-0.11425 0.09375,-0.15625c0.04307,-0.08399 0.07563,-0.14765 0.09375,-0.1875c0.0254,-0.05584 0.01413,-0.08382 0.03125,-0.125c0.03272,-0.07732 0.03226,-0.01292 0.0625,-0.09375c0.0137,-0.03612 0.0173,-0.08606 0.03125,-0.125c0.03056,-0.0853 0.06407,-0.21321 0.09375,-0.3125c0.05053,-0.14682 0.08805,-0.28332 0.125,-0.4375c0.0054,-0.0266 0.02603,-0.0349 0.03125,-0.0625a3.80132,3.80132 0 0 0 0.03125,-0.375a3.80132,3.80132 0 0 0 0,-0.0625c0.03418,-0.22547 0.09833,-0.41028 0.09375,-0.71875c-0.01262,-0.85052 -0.24411,-1.72 -0.65625,-2.5c-0.42598,-0.80625 -0.9863,-1.46166 -1.78125,-2c-0.33848,-0.22922 -0.59837,-0.36297 -0.84375,-0.46875c-0.12269,-0.05289 -0.22411,-0.09717 -0.40625,-0.15625c-0.03815,-0.01238 -0.09244,-0.01328 -0.15625,-0.03125c-0.01117,-0.0043 -0.01972,0.00434 -0.03125,0c-0.13273,-0.05001 -0.14136,-0.07836 -0.3125,-0.125c-0.30399,-0.08285 -0.54573,-0.1013 -0.8125,-0.125c-0.06611,-0.01032 -0.3406,-0.03716 -0.5,-0.0625c-0.19993,-0.03178 -0.31791,-0.06569 -0.625,-0.09375c-0.75729,-0.06918 -1.68918,-0.1233 -2.8125,-0.1875c-2.23002,-0.12746 -5.11122,-0.29061 -8.03125,-0.40625c-2.92074,-0.11567 -5.87171,-0.20891 -8.09375,-0.28125c-1.09723,-0.03572 -2.02495,-0.07245 -2.71875,-0.09375c-0.33361,-0.01024 -0.62568,0.0054 -0.8125,0c-0.09341,-0.0027 -0.13858,-0.02989 -0.1875,-0.03125c-0.01223,-0.00034 -0.02187,0.00026 -0.03125,0c-0.00011,0 -0.23673,0.00054 -0.25,0c-0.18948,-0.00777 -1.47757,-0.07086 -3.5625,-0.15625c-2.23118,-0.09138 -5.17955,-0.21065 -8.09375,-0.3125c-2.88859,-0.10096 -5.79141,-0.21045 -8.0625,-0.25c-1.15812,-0.02017 -2.10772,-0.01171 -2.8125,0zm-14.28125,31.8125c0.01738,-0.002 0.12509,0.00001 0.125,0c-0.00057,-0.00006 0.52641,0.08408 0.75,0.15625c0.1068,0.03447 0.18995,0.08685 0.28125,0.125c0.07061,0.0295 0.15692,0.0636 0.21875,0.09375c0.01205,0.0061 0.04738,0.0063 0.09375,0.03125c0.0038,0.0022 -0.0043,0.02876 0,0.03125c-0.07394,-0.03965 -0.25107,-0.05214 -0.34375,-0.09375c-0.30594,-0.13737 -0.60539,-0.30332 -1.125,-0.34375zm-0.5625,0.09375c-0.63574,0.0877 -1.28389,0.25192 -1.5625,0.40625c0.24178,-0.12017 0.62571,-0.31274 0.625,-0.3125c-0.00053,0.00018 0.47681,-0.04151 0.9375,-0.09375z"/>
  <path transform="rotate(-35 55.68831253051758,65.3147964477539) " fill="url(#E)" id="3" d="m39.11625,11.558692c-0.337332,0.005606 -0.574982,0.009165 -0.806359,0.027805c-0.109816,0.008844 -0.251753,0.001121 -0.389277,0.027805c-0.060772,0.01179 -0.128208,0.009663 -0.250249,0.055611c-0.053253,0.020047 -0.134347,0.064918 -0.250249,0.139027c-0.115902,0.074118 -0.244653,0.186977 -0.389277,0.417082c-0.144642,0.23014 -0.206935,0.398068 -0.222444,0.528304c-0.015509,0.130236 -0.004983,0.22215 0,0.278055c0.01235,0.138235 0.071084,0.203447 0.083416,0.250249c0.032664,0.124017 0.039257,0.247197 0.083416,0.361471c0.084662,0.21908 0.22054,0.473289 0.361471,0.778553c0.283287,0.613616 0.701543,1.43793 1.195635,2.419076c0.987953,1.961812 2.319679,4.493551 3.670322,7.06259c2.701366,5.138229 5.515805,10.424739 5.561094,10.510468c0.018454,0.034924 0.691951,1.372727 1.723939,3.336657c1.031988,1.963929 2.424335,4.557508 3.781544,7.118201c1.357147,2.560577 2.720585,5.142971 3.781544,7.06259c0.530493,0.959845 0.988095,1.756149 1.334663,2.33566c0.172919,0.289132 0.312809,0.531053 0.444888,0.722942c0.069233,0.100589 0.138369,0.153264 0.222444,0.250249c0.036418,0.042006 0.062569,0.108971 0.166833,0.194638c0.044969,0.036952 0.100091,0.106657 0.222444,0.166833c0.122353,0.060175 0.312587,0.128848 0.583915,0.139027c0.324634,0.01219 0.521177,-0.043466 0.639526,-0.111222c0.118349,-0.067756 0.155248,-0.16355 0.194638,-0.194638c0.103668,-0.081833 0.166646,-0.134214 0.222444,-0.194638c0.10906,-0.118109 0.177857,-0.228779 0.278055,-0.361471c0.20334,-0.269299 0.455093,-0.61689 0.750748,-1.056608c0.590989,-0.878955 1.369399,-2.109167 2.252243,-3.503489c1.573896,-2.485738 3.437993,-5.508082 5.116207,-8.202614c9.624226,4.989636 16.266201,14.906998 16.266201,26.498615c0,16.632673 -13.452919,30.113326 -30.085521,30.113326c-16.63261,0 -30.113326,-13.480716 -30.113326,-30.113326c0,-6.872561 2.415383,-13.128302 6.311842,-18.212584c0.203492,-0.265722 0.297336,-0.587981 0.250249,-0.917581c-0.047194,-0.330338 -0.2303,-0.635727 -0.500498,-0.834164c-3.585411,-2.669672 -5.381493,-3.979039 -6.284037,-4.643514c-0.451303,-0.33226 -0.699167,-0.517066 -0.834164,-0.61172c-0.06426,-0.045058 -0.052719,-0.047265 -0.166833,-0.111222c-0.016434,-0.009209 -0.04198,-0.020705 -0.055611,-0.027805c-0.087118,-0.060647 -0.289124,-0.238389 -0.722942,-0.556109c-0.88925,-0.651253 -2.70731,-1.959356 -6.284037,-4.615708c-0.546251,-0.401057 -1.286125,-0.318468 -1.696134,0.222444c-6.37595,8.447747 -10.343636,18.894463 -10.343636,30.307964c0,27.844684 22.594415,50.466931 50.439126,50.466931c27.84472,0 50.494737,-22.620681 50.494737,-50.466931c0,-18.872299 -10.560403,-35.036959 -25.942505,-43.626785c1.401787,-2.222979 2.816512,-4.484876 3.892766,-6.20062c0.629516,-1.003568 1.186844,-1.87222 1.557106,-2.502492c0.185527,-0.315826 0.306385,-0.560229 0.417082,-0.778553c0.053938,-0.106373 0.144597,-0.199888 0.194638,-0.333666c0.022022,-0.058876 0.058147,-0.144348 0.083416,-0.278055c0.010357,-0.05481 0.026257,-0.138298 0.027805,-0.278055c0.001548,-0.139757 -0.034933,-0.334297 -0.166833,-0.583915c-0.12738,-0.241093 -0.247509,-0.367023 -0.361471,-0.444888c-0.113962,-0.077864 -0.201116,-0.116222 -0.250249,-0.139027c-0.119061,-0.055264 -0.217221,-0.066831 -0.278055,-0.083416c-0.132327,-0.036063 -0.222898,-0.038323 -0.333666,-0.055611c-0.230674,-0.036009 -0.498594,-0.052764 -0.834164,-0.083416c-0.673142,-0.061492 -1.600777,-0.131971 -2.697131,-0.194638c-2.192335,-0.125307 -5.052784,-0.246646 -7.952365,-0.361471c-2.899635,-0.114834 -5.833036,-0.202975 -8.063587,-0.278055c-2.230551,-0.075079 -3.763882,-0.137319 -3.80935,-0.139027c-0.108908,-0.004084 -6.049794,-0.242339 -11.845131,-0.444888c-2.897481,-0.101265 -5.786118,-0.212042 -7.98017,-0.250249c-1.097271,-0.019103 -2.022085,-0.01122 -2.697131,0z"/>
  <path transform="rotate(-35 55.688312530517614,65.31491851806642) " stroke-width="3.911" stroke-linecap="round" stroke-linejoin="round" stroke="url(#C)" fill="none" opacity="0.601" id="4" d="m38.81039,13.254826a0.118527,0.118527 0 0 0 -0.027805,0.027805a0.118527,0.118527 0 0 0 -0.027805,0.027805a0.118527,0.118527 0 0 0 0,0.027805a0.118527,0.118527 0 0 0 0,0.027805a0.118527,0.118527 0 0 0 0,0.027805a0.118527,0.118527 0 0 0 0,0.027805c0.054072,0.113322 0.071636,0.132078 0.139027,0.278055c0.276934,0.599869 0.656093,1.402517 1.140024,2.363465c0.976048,1.938162 2.291616,4.465247 3.642517,7.034784c2.698546,5.132881 5.414148,10.232351 5.561094,10.510468c0.094841,0.179485 0.720371,1.373893 1.751745,3.336657c1.031374,1.962746 2.397953,4.560195 3.753739,7.118201c1.358171,2.562499 2.734724,5.140738 3.781544,7.034784c0.522129,0.94471 0.944941,1.721377 1.279052,2.280049c0.076423,0.127781 0.115439,0.165044 0.166833,0.250249a0.118527,0.118527 0 0 0 0.027805,0.027805a0.118527,0.118527 0 0 0 0.027805,0.027805a0.118527,0.118527 0 0 0 0.027805,0a0.118527,0.118527 0 0 0 0.027805,0a0.118527,0.118527 0 0 0 0.027805,0a0.118527,0.118527 0 0 0 0.027805,0a0.118527,0.118527 0 0 0 0.027805,-0.027805c0.159519,-0.216687 0.342919,-0.461482 0.556109,-0.778553c0.567312,-0.843756 1.34163,-2.081424 2.224438,-3.475684c1.573229,-2.484688 3.459517,-5.525895 5.144012,-8.23042c0.461331,-0.721074 1.383093,-0.954008 2.141021,-0.556109c10.174356,5.258971 17.211587,15.747889 17.211587,28.00011c0,17.54608 -14.23375,31.80946 -31.781654,31.80946c-17.547922,0 -31.80946,-14.261538 -31.80946,-31.80946c0,-7.056717 2.451384,-13.47971 6.339648,-18.740888a0.118527,0.118527 0 0 0 0.027805,-0.027805a0.118527,0.118527 0 0 0 0,-0.027805a0.118527,0.118527 0 0 0 0,-0.027805a0.118527,0.118527 0 0 0 0,-0.027805a0.118527,0.118527 0 0 0 0,-0.027805a0.118527,0.118527 0 0 0 -0.027805,-0.027805c-3.125486,-2.323968 -5.015929,-3.711101 -5.866955,-4.337654c-0.453251,-0.333692 -0.714089,-0.519219 -0.806359,-0.583915c0.001958,0.007652 0,0.027832 0,0.027805c-0.000009,-0.000053 -0.000018,0.055647 0,0.055611c0.000018,-0.000036 -0.055647,0.055638 -0.055611,0.055611c0.000036,-0.000027 -0.027859,0.000009 -0.027805,0c0.000053,-0.000009 -0.027877,0 -0.027805,0c0.000142,0 -0.028019,-0.000053 -0.027805,0c0.000214,0.000053 -0.025394,0.000819 -0.027805,0c0,0 0,-0.027805 0,-0.027805c0,0 -0.027805,-0.027805 -0.027805,-0.027805c0,0 0.111222,-0.027805 0.111222,-0.027805c-0.000036,-0.000009 0.046001,-0.054641 0.055611,-0.083416c0.000098,0.00016 -0.000187,-0.028028 0,-0.027805c-0.062667,-0.030706 -0.136376,-0.072828 -0.194638,-0.111222l0,0.027805c-0.348044,-0.242295 -0.358143,-0.296384 -0.750748,-0.583915c-0.80385,-0.588711 -2.733807,-1.995009 -5.783538,-4.254237a0.118527,0.118527 0 0 0 -0.027805,-0.027805a0.118527,0.118527 0 0 0 -0.027805,0a0.118527,0.118527 0 0 0 -0.027805,0a0.118527,0.118527 0 0 0 -0.027805,0a0.118527,0.118527 0 0 0 -0.027805,0a0.118527,0.118527 0 0 0 -0.027805,0.027805c-5.96233,8.092807 -9.676304,17.998246 -9.676304,28.806469c0,26.929284 21.814803,48.770798 48.742992,48.770798c26.92826,0 48.798603,-21.842137 48.798603,-48.770798c0,-18.254679 -10.211353,-33.904266 -25.108341,-42.208706c-0.392934,-0.219027 -0.693989,-0.593969 -0.806359,-1.028802c-0.11237,-0.434833 -0.016986,-0.894153 0.222444,-1.279052c1.408665,-2.23386 2.840224,-4.506159 3.920572,-6.228426c0.634685,-1.011808 1.190359,-1.869925 1.529301,-2.446882c0.069767,-0.118767 0.115315,-0.208821 0.166833,-0.30586a0.118527,0.118527 0 0 0 0,-0.027805a0.118527,0.118527 0 0 0 0,-0.027805a0.118527,0.118527 0 0 0 0,-0.027805a0.118527,0.118527 0 0 0 0,-0.027805a0.118527,0.118527 0 0 0 -0.027805,-0.027805a0.118527,0.118527 0 0 0 -0.027805,-0.027805a0.118527,0.118527 0 0 0 -0.027805,0a0.118527,0.118527 0 0 0 -0.027805,0c-0.103454,-0.00928 -0.137533,-0.014966 -0.278055,-0.027805c-0.648993,-0.059295 -1.562765,-0.132986 -2.64152,-0.194638c-2.170695,-0.12407 -5.028075,-0.246761 -7.924559,-0.361471c-2.894874,-0.114639 -5.807873,-0.203064 -8.035781,-0.278055c-2.227899,-0.07499 -3.525289,-0.128368 -3.80935,-0.139027c-0.267235,-0.010028 -6.055747,-0.242544 -11.845131,-0.444888c-2.901281,-0.101399 -5.789366,-0.212585 -7.952365,-0.250249c-1.072579,-0.018676 -1.979002,-0.011007 -2.64152,0c-0.131882,0.002189 -0.175642,-0.002589 -0.278055,0a0.118527,0.118527 0 0 0 -0.027805,0a0.118527,0.118527 0 0 0 -0.027805,0z"/>
  <path transform="rotate(-35 16.6403045654297,67.3464126586914) " fill="url(#D)" opacity="0.538" id="5" d="m10.575666,60.387223c-0.36994,0.05899 -0.69827,0.2734 -0.91993,0.59372c-0.79137,1.19692 -1.54955,2.41286 -2.267,3.66705l2.6284,1.43189c0.40091,-0.6922 0.79093,-1.38511 1.21563,-2.06053c1.88932,1.47706 3.82487,3.01712 4.43543,3.49243c0.38102,0.29663 0.481,0.39489 0.98565,0.76834c0.01077,0.01183 0.02172,0.02347 0.03286,0.03492c0.04263,0.0257 0.0865,0.04902 0.13142,0.06985c0.01184,0.01167 0.03254,0.03464 0.03286,0.03493c0.0086,0.005 0.02498,-0.0045 0.03286,0c0.02379,0.01726 0.10412,0.06113 0.16427,0.10477c0.02843,0.02063 0.06571,0.06985 0.06571,0.06985c-0.00027,0 0.03252,-0.00056 0.03285,0c0.00095,0.0016 0.06018,0.02927 0.06571,0.03492c0.05547,0.05674 0.17236,0.18672 0.55854,0.48894c0.71166,0.55695 2.76171,2.16244 4.89539,3.84167c-0.0051,0.0083 0.0051,0.02657 0,0.03492l2.43127,1.32713c0.18606,-0.30159 0.36577,-0.61169 0.55854,-0.90803c0.41382,-0.66083 0.26956,-1.55024 -0.32855,-2.02561c-2.78722,-2.19786 -5.05376,-3.97179 -5.9139,-4.64494c-0.38244,-0.2993 -0.36714,-0.3552 -0.6571,-0.59371c-0.01095,-0.00014 -0.0219,-0.00014 -0.03285,0c-0.01077,-0.01183 -0.02172,-0.02348 -0.03285,-0.03492c-0.05245,-0.03885 -0.10735,-0.07386 -0.16428,-0.10478c-0.01095,-0.00013 -0.0219,-0.00013 -0.03286,0c-0.02191,0.03322 -0.18771,0.26055 -0.3614,0.52387l-0.26284,0.59371c-0.0027,0.0079 -0.03087,0.02913 -0.03286,0.03493c-0.0051,0.0018 -0.02882,-0.0014 -0.03285,0c0.0023,-0.01877 0.028,-0.09979 0.03285,-0.1397c-0.03037,0.04605 -0.13142,0.17463 -0.13142,0.17463l0.13142,-0.24447c0.0029,-0.02342 -0.0033,-0.043 0,-0.06985c0.11827,-0.2693 0.21823,-0.51717 0.32855,-0.76834c-0.05241,0.16343 -0.08275,0.26968 -0.16428,0.52387l0.06571,-0.10478c0.10649,-0.31084 0.18465,-0.59219 0.19713,-0.62863c0.0094,0.0034 0.03286,0 0.03286,0c0,0 0.06301,0.01683 0.09857,0.03492l0,-0.03492c-0.07682,-0.04506 -0.08503,-0.06214 -0.09857,-0.06985c0,0 -0.01931,0.006 -0.03286,0c-0.00021,-0.00004 -0.0012,-0.0358 0,-0.03492c-0.04263,-0.0257 -0.08649,-0.04902 -0.13142,-0.06985c-0.04263,-0.0257 -0.08649,-0.04901 -0.13142,-0.06985c-0.21003,-0.16858 -0.32861,-0.31241 -0.68995,-0.59372c-0.78913,-0.61433 -3.06023,-2.34149 -5.68392,-4.40046c-0.30033,-0.23708 -0.6814,-0.33838 -1.05136,-0.27939l-0.00001,-0.00001z"/>
  <path fill="#ac4311" opacity="0.634" id="6" d="m23.183712,44.814033c-0.0498,0.13475 -0.1231,0.34292 -0.22244,0.61172c0.01997,-0.1543 0.0078,-0.17936 0.0278,-0.33366l0.19464,-0.27806z"/>
 </g>
</svg>